ISO-10303-21;
HEADER;
FILE_DESCRIPTION((''),'2;1');
FILE_NAME('back_leg', '2026-08-14T14:31:39', (''), (''), 'ImageToStl.com STEP Converter','', '');
FILE_SCHEMA(('AUTOMOTIVE_DESIGN_CC2'));
ENDSEC;
DATA;
#1=PRODUCT_DEFINITION_CONTEXT('',#4,'design');
#2=APPLICATION_PROTOCOL_DEFINITION('INTERNATIONAL STANDARD','automotive_design',1994,#4);
#3=(GEOMETRIC_REPRESENTATION_CONTEXT(3)GLOBAL_UNCERTAINTY_ASSIGNED_CONTEXT((#5))GLOBAL_UNIT_ASSIGNED_CONTEXT((#6,#7,#8))REPRESENTATION_CONTEXT('NONE','WORKSPACE'));
#4=APPLICATION_CONTEXT(' ');
#5=UNCERTAINTY_MEASURE_WITH_UNIT(LENGTH_MEASURE(1.0E-006),#6,'','');
#6=(CONVERSION_BASED_UNIT('METRE',#10)LENGTH_UNIT()NAMED_UNIT(#11));
#7=(NAMED_UNIT(#12)PLANE_ANGLE_UNIT()SI_UNIT($,.RADIAN.));
#8=(NAMED_UNIT(#12)SOLID_ANGLE_UNIT()SI_UNIT($,.STERADIAN.));
#9=AXIS2_PLACEMENT_3D('',#14,#15,#16);
#10=LENGTH_MEASURE_WITH_UNIT(LENGTH_MEASURE(1.0),#17);
#11=DIMENSIONAL_EXPONENTS(1.0,0.0,0.0,0.0,0.0,0.0,0.0);
#12=DIMENSIONAL_EXPONENTS(0.0,0.0,0.0,0.0,0.0,0.0,0.0);
#13=PRODUCT_CONTEXT('',#4,'mechanical');
#14=CARTESIAN_POINT('',(0.0,0.0,0.0));
#15=DIRECTION('',(0.0,0.0,1.0));
#16=DIRECTION('',(1.0,0.0,0.0));
#17=(NAMED_UNIT(#11)LENGTH_UNIT()SI_UNIT(.MILLI.,.METRE.));
#18=PRESENTATION_STYLE_ASSIGNMENT((#19));
#19=SURFACE_STYLE_USAGE(.BOTH.,#20);
#20=SURFACE_SIDE_STYLE('',(#21));
#21=SURFACE_STYLE_FILL_AREA(#22);
#22=FILL_AREA_STYLE('',(#23));
#23=FILL_AREA_STYLE_COLOUR('',#24);
#24=COLOUR_RGB('',0.9,0.9,0.9);
#25=SHAPE_DEFINITION_REPRESENTATION(#26,#27);
#26=PRODUCT_DEFINITION_SHAPE('productshape0','',#30);
#27=MANIFOLD_SURFACE_SHAPE_REPRESENTATION('',(#28,#9),#3);
#28=SHELL_BASED_SURFACE_MODEL('shell0',(#33));
#29=PRODUCT('product0','','',(#13));
#30=PRODUCT_DEFINITION('mesh0','',#31,#2);
#31=PRODUCT_DEFINITION_FORMATION_WITH_SPECIFIED_SOURCE('prodsource0','',#29,.NOT_KNOWN.);
#32=STYLED_ITEM('',(#18),#33);
#33=CLOSED_SHELL('',(#86,#108,#130,#152,#174,#196,#218,#240,#262,#284,#306,#328,#350,#372,#394,#416,#438,#460,#482,#504,#526,#548,#570,#592,#614,#636,#658,#680,#702,#724,#746,#768,#790,#812,#834,#856,#878,#900,#922,#944,#966,#988,#1010,#1032,#1054,#1076,#1098,#1120));
#34=CARTESIAN_POINT('',(-332.0731506347656,-240,52.56100082397461));
#35=VERTEX_POINT('',#34);
#36=CARTESIAN_POINT('',(-331.9996337890625,-240,52.591461181640625));
#37=VERTEX_POINT('',#36);
#38=CARTESIAN_POINT('',(-312.5531921386719,-240,13.274530410766602));
#39=VERTEX_POINT('',#38);
#40=CARTESIAN_POINT('',(-329.97998046875,-240,53.42818832397461));
#41=VERTEX_POINT('',#40);
#42=CARTESIAN_POINT('',(-329.30218505859375,-240,53.70899963378906));
#43=VERTEX_POINT('',#42);
#44=CARTESIAN_POINT('',(-312.649169921875,-253,9.166999816894531));
#45=VERTEX_POINT('',#44);
#46=CARTESIAN_POINT('',(-313.3221740722656,-253,7.290999889373779));
#47=VERTEX_POINT('',#46);
#48=CARTESIAN_POINT('',(-312.9482727050781,-253,7.445849895477295));
#49=VERTEX_POINT('',#48);
#50=CARTESIAN_POINT('',(-329.28717041015625,-240,54.12099838256836));
#51=VERTEX_POINT('',#50);
#52=CARTESIAN_POINT('',(-329.28717041015625,-253,54.12099838256836));
#53=VERTEX_POINT('',#52);
#54=CARTESIAN_POINT('',(-343.4291687011719,-240,68.26300048828125));
#55=VERTEX_POINT('',#54);
#56=CARTESIAN_POINT('',(-345.5501708984375,-240,66.14199829101562));
#57=VERTEX_POINT('',#56);
#58=CARTESIAN_POINT('',(-312.1441650390625,-253,11.418000221252441));
#59=VERTEX_POINT('',#58);
#60=CARTESIAN_POINT('',(-313.5531921386719,-253,15.68867015838623));
#61=VERTEX_POINT('',#60);
#62=CARTESIAN_POINT('',(-312,-240,11.939109802246094));
#63=VERTEX_POINT('',#62);
#64=CARTESIAN_POINT('',(-312.1441650390625,-240,11.418000221252441));
#65=VERTEX_POINT('',#64);
#66=CARTESIAN_POINT('',(-329.97998046875,-253,53.42818832397461));
#67=VERTEX_POINT('',#66);
#68=CARTESIAN_POINT('',(-343.4291687011719,-253,68.26300048828125));
#69=VERTEX_POINT('',#68);
#70=CARTESIAN_POINT('',(-345.5501708984375,-253,66.14199829101562));
#71=VERTEX_POINT('',#70);
#72=CARTESIAN_POINT('',(-329.30218505859375,-253,53.70899963378906));
#73=VERTEX_POINT('',#72);
#74=CARTESIAN_POINT('',(-331.9996337890625,-253,52.591461181640625));
#75=VERTEX_POINT('',#74);
#76=CARTESIAN_POINT('',(-332.0731506347656,-253,52.56100082397461));
#77=VERTEX_POINT('',#76);
#78=CARTESIAN_POINT('',(-312,-253,11.939109802246094));
#79=VERTEX_POINT('',#78);
#80=CARTESIAN_POINT('',(-312.649169921875,-240,9.166999816894531));
#81=VERTEX_POINT('',#80);
#82=CARTESIAN_POINT('',(-312.9482727050781,-240,7.445849895477295));
#83=VERTEX_POINT('',#82);
#84=CARTESIAN_POINT('',(-313.3221740722656,-240,7.290999889373779));
#85=VERTEX_POINT('',#84);
#86=FACE_SURFACE('',(#91),#87,.T.);
#87=PLANE('',#88);
#88=AXIS2_PLACEMENT_3D('',#34,#89,#90);
#89=DIRECTION('',(-0,1,0));
#90=DIRECTION('',(0.923840949720089,0,0.382776566184875));
#91=FACE_BOUND('',#92,.T.);
#92=EDGE_LOOP('',(#93,#94,#95));
#93=ORIENTED_EDGE('',*,*,#96,.T.);
#94=ORIENTED_EDGE('',*,*,#97,.T.);
#95=ORIENTED_EDGE('',*,*,#98,.T.);
#96=EDGE_CURVE('',#35,#37,#99,.F.);
#97=EDGE_CURVE('',#37,#39,#100,.T.);
#98=EDGE_CURVE('',#39,#35,#101,.T.);
#99=LINE('',#34,#102);
#100=LINE('',#36,#103);
#101=LINE('',#38,#104);
#102=VECTOR('',#105,1.0);
#103=VECTOR('',#106,1.0);
#104=VECTOR('',#107,1.0);
#105=DIRECTION('',(0.923840949720089,0,0.382776566184875));
#106=DIRECTION('',(0.4433424208008639,0,-0.8963523291197661));
#107=DIRECTION('',(-0.444964075318867,0,0.8955484195037282));
#108=FACE_SURFACE('',(#113),#109,.T.);
#109=PLANE('',#110);
#110=AXIS2_PLACEMENT_3D('',#38,#111,#112);
#111=DIRECTION('',(0,1,0));
#112=DIRECTION('',(-0.3981241859540016,0,0.9173315281611462));
#113=FACE_BOUND('',#114,.T.);
#114=EDGE_LOOP('',(#115,#116,#117));
#115=ORIENTED_EDGE('',*,*,#118,.T.);
#116=ORIENTED_EDGE('',*,*,#119,.T.);
#117=ORIENTED_EDGE('',*,*,#120,.T.);
#118=EDGE_CURVE('',#39,#41,#121,.F.);
#119=EDGE_CURVE('',#41,#43,#122,.T.);
#120=EDGE_CURVE('',#43,#39,#123,.T.);
#121=LINE('',#38,#124);
#122=LINE('',#40,#125);
#123=LINE('',#42,#126);
#124=VECTOR('',#127,1.0);
#125=VECTOR('',#128,1.0);
#126=VECTOR('',#129,1.0);
#127=DIRECTION('',(-0.3981241859540016,0,0.9173315281611462));
#128=DIRECTION('',(0.9238509732189542,0,0.3827523733203899));
#129=DIRECTION('',(0.3826929375280018,0,-0.9238755952866106));
#130=FACE_SURFACE('',(#135),#131,.T.);
#131=PLANE('',#132);
#132=AXIS2_PLACEMENT_3D('',#40,#133,#134);
#133=DIRECTION('',(0,1,0));
#134=DIRECTION('',(0.3981241859540016,0,-0.9173315281611462));
#135=FACE_BOUND('',#136,.T.);
#136=EDGE_LOOP('',(#137,#138,#139));
#137=ORIENTED_EDGE('',*,*,#140,.T.);
#138=ORIENTED_EDGE('',*,*,#141,.T.);
#139=ORIENTED_EDGE('',*,*,#142,.T.);
#140=EDGE_CURVE('',#41,#39,#143,.F.);
#141=EDGE_CURVE('',#39,#37,#144,.T.);
#142=EDGE_CURVE('',#37,#41,#145,.T.);
#143=LINE('',#40,#146);
#144=LINE('',#38,#147);
#145=LINE('',#36,#148);
#146=VECTOR('',#149,1.0);
#147=VECTOR('',#150,1.0);
#148=VECTOR('',#151,1.0);
#149=DIRECTION('',(0.3981241859540016,0,-0.9173315281611462));
#150=DIRECTION('',(-0.4433424208008639,0,0.8963523291197661));
#151=DIRECTION('',(0.9238537599698509,0,0.3827456468590718));
#152=FACE_SURFACE('',(#157),#153,.T.);
#153=PLANE('',#154);
#154=AXIS2_PLACEMENT_3D('',#44,#155,#156);
#155=DIRECTION('',(0,-1,0));
#156=DIRECTION('',(-0.33767286180166894,0,-0.9412635329187417));
#157=FACE_BOUND('',#158,.T.);
#158=EDGE_LOOP('',(#159,#160,#161));
#159=ORIENTED_EDGE('',*,*,#162,.T.);
#160=ORIENTED_EDGE('',*,*,#163,.T.);
#161=ORIENTED_EDGE('',*,*,#164,.T.);
#162=EDGE_CURVE('',#45,#47,#165,.F.);
#163=EDGE_CURVE('',#47,#49,#166,.T.);
#164=EDGE_CURVE('',#49,#45,#167,.T.);
#165=LINE('',#44,#168);
#166=LINE('',#46,#169);
#167=LINE('',#48,#170);
#168=VECTOR('',#171,1.0);
#169=VECTOR('',#172,1.0);
#170=VECTOR('',#173,1.0);
#171=DIRECTION('',(-0.33767286180166894,0,-0.9412635329187417));
#172=DIRECTION('',(0.9239013813187489,0,0.3826306804182172));
#173=DIRECTION('',(0.17121469261580344,0,0.9852337433484888));
#174=FACE_SURFACE('',(#179),#175,.T.);
#175=PLANE('',#176);
#176=AXIS2_PLACEMENT_3D('',#50,#177,#178);
#177=DIRECTION('',(0.7071067811865476,0,-0.7071067811865476));
#178=DIRECTION('',(0,-1,0));
#179=FACE_BOUND('',#180,.T.);
#180=EDGE_LOOP('',(#181,#182,#183));
#181=ORIENTED_EDGE('',*,*,#184,.T.);
#182=ORIENTED_EDGE('',*,*,#185,.T.);
#183=ORIENTED_EDGE('',*,*,#186,.T.);
#184=EDGE_CURVE('',#51,#53,#187,.F.);
#185=EDGE_CURVE('',#53,#41,#188,.T.);
#186=EDGE_CURVE('',#41,#51,#189,.T.);
#187=LINE('',#50,#190);
#188=LINE('',#52,#191);
#189=LINE('',#40,#192);
#190=VECTOR('',#193,1.0);
#191=VECTOR('',#194,1.0);
#192=VECTOR('',#195,1.0);
#193=DIRECTION('',(0,-1,0));
#194=DIRECTION('',(-0.05314236274332958,0.9971718901794779,-0.05314236274332958));
#195=DIRECTION('',(0.7071067811865475,0,0.7071067811865475));
#196=FACE_SURFACE('',(#201),#197,.T.);
#197=PLANE('',#198);
#198=AXIS2_PLACEMENT_3D('',#54,#199,#200);
#199=DIRECTION('',(0,1,0));
#200=DIRECTION('',(0.7071066858181962,0,-0.707106876554886));
#201=FACE_BOUND('',#202,.T.);
#202=EDGE_LOOP('',(#203,#204,#205));
#203=ORIENTED_EDGE('',*,*,#206,.T.);
#204=ORIENTED_EDGE('',*,*,#207,.T.);
#205=ORIENTED_EDGE('',*,*,#208,.T.);
#206=EDGE_CURVE('',#55,#51,#209,.F.);
#207=EDGE_CURVE('',#51,#41,#210,.T.);
#208=EDGE_CURVE('',#41,#55,#211,.T.);
#209=LINE('',#54,#212);
#210=LINE('',#50,#213);
#211=LINE('',#40,#214);
#212=VECTOR('',#215,1.0);
#213=VECTOR('',#216,1.0);
#214=VECTOR('',#217,1.0);
#215=DIRECTION('',(0.7071066858181962,0,-0.707106876554886));
#216=DIRECTION('',(-0.7071067811865475,0,-0.7071067811865475));
#217=DIRECTION('',(-0.6716603457715458,0,0.7408592173402768));
#218=FACE_SURFACE('',(#223),#219,.T.);
#219=PLANE('',#220);
#220=AXIS2_PLACEMENT_3D('',#54,#221,#222);
#221=DIRECTION('',(0,1,0));
#222=DIRECTION('',(0.6716603457715458,0,-0.7408592173402768));
#223=FACE_BOUND('',#224,.T.);
#224=EDGE_LOOP('',(#225,#226,#227));
#225=ORIENTED_EDGE('',*,*,#228,.T.);
#226=ORIENTED_EDGE('',*,*,#229,.T.);
#227=ORIENTED_EDGE('',*,*,#230,.T.);
#228=EDGE_CURVE('',#55,#41,#231,.F.);
#229=EDGE_CURVE('',#41,#37,#232,.T.);
#230=EDGE_CURVE('',#37,#55,#233,.T.);
#231=LINE('',#54,#234);
#232=LINE('',#40,#235);
#233=LINE('',#36,#236);
#234=VECTOR('',#237,1.0);
#235=VECTOR('',#238,1.0);
#236=VECTOR('',#239,1.0);
#237=DIRECTION('',(0.6716603457715458,0,-0.7408592173402768));
#238=DIRECTION('',(-0.9238537599698509,0,-0.3827456468590718));
#239=DIRECTION('',(-0.5892519548718215,0,0.8079493385601209));
#240=FACE_SURFACE('',(#245),#241,.T.);
#241=PLANE('',#242);
#242=AXIS2_PLACEMENT_3D('',#54,#243,#244);
#243=DIRECTION('',(0,1,0));
#244=DIRECTION('',(0.5892519548718215,0,-0.8079493385601209));
#245=FACE_BOUND('',#246,.T.);
#246=EDGE_LOOP('',(#247,#248,#249));
#247=ORIENTED_EDGE('',*,*,#250,.T.);
#248=ORIENTED_EDGE('',*,*,#251,.T.);
#249=ORIENTED_EDGE('',*,*,#252,.T.);
#250=EDGE_CURVE('',#55,#37,#253,.F.);
#251=EDGE_CURVE('',#37,#57,#254,.T.);
#252=EDGE_CURVE('',#57,#55,#255,.T.);
#253=LINE('',#54,#256);
#254=LINE('',#36,#257);
#255=LINE('',#56,#258);
#256=VECTOR('',#259,1.0);
#257=VECTOR('',#260,1.0);
#258=VECTOR('',#261,1.0);
#259=DIRECTION('',(0.5892519548718215,0,-0.8079493385601209));
#260=DIRECTION('',(-0.7071067811865476,0,0.7071067811865476));
#261=DIRECTION('',(0.7071067811865475,0,0.7071067811865475));
#262=FACE_SURFACE('',(#267),#263,.T.);
#263=PLANE('',#264);
#264=AXIS2_PLACEMENT_3D('',#58,#265,#266);
#265=DIRECTION('',(-0,-1,0));
#266=DIRECTION('',(-0.3133185025461702,0,0.9496481011207392));
#267=FACE_BOUND('',#268,.T.);
#268=EDGE_LOOP('',(#269,#270,#271));
#269=ORIENTED_EDGE('',*,*,#272,.T.);
#270=ORIENTED_EDGE('',*,*,#273,.T.);
#271=ORIENTED_EDGE('',*,*,#274,.T.);
#272=EDGE_CURVE('',#59,#61,#275,.F.);
#273=EDGE_CURVE('',#61,#45,#276,.T.);
#274=EDGE_CURVE('',#45,#59,#277,.T.);
#275=LINE('',#58,#278);
#276=LINE('',#60,#279);
#277=LINE('',#44,#280);
#278=VECTOR('',#281,1.0);
#279=VECTOR('',#282,1.0);
#280=VECTOR('',#283,1.0);
#281=DIRECTION('',(-0.3133185025461702,0,0.9496481011207392));
#282=DIRECTION('',(0.13730531752073927,0,-0.9905287728180989));
#283=DIRECTION('',(0.21890556676795442,0,0.9757460493581311));
#284=FACE_SURFACE('',(#289),#285,.T.);
#285=PLANE('',#286);
#286=AXIS2_PLACEMENT_3D('',#62,#287,#288);
#287=DIRECTION('',(0,1,0));
#288=DIRECTION('',(-0.26663475535796166,0,-0.9637976484901797));
#289=FACE_BOUND('',#290,.T.);
#290=EDGE_LOOP('',(#291,#292,#293));
#291=ORIENTED_EDGE('',*,*,#294,.T.);
#292=ORIENTED_EDGE('',*,*,#295,.T.);
#293=ORIENTED_EDGE('',*,*,#296,.T.);
#294=EDGE_CURVE('',#63,#65,#297,.F.);
#295=EDGE_CURVE('',#65,#39,#298,.T.);
#296=EDGE_CURVE('',#39,#63,#299,.T.);
#297=LINE('',#62,#300);
#298=LINE('',#64,#301);
#299=LINE('',#38,#302);
#300=VECTOR('',#303,1.0);
#301=VECTOR('',#304,1.0);
#302=VECTOR('',#305,1.0);
#303=DIRECTION('',(-0.26663475535796166,0,-0.9637976484901797));
#304=DIRECTION('',(-0.21515802896510564,0,0.9765792454132183));
#305=DIRECTION('',(0.3827087123887185,0,-0.9238690607774291));
#306=FACE_SURFACE('',(#311),#307,.T.);
#307=PLANE('',#308);
#308=AXIS2_PLACEMENT_3D('',#40,#309,#310);
#309=DIRECTION('',(0.7071067811865476,0,-0.7071067811865476));
#310=DIRECTION('',(0.05314236274332958,-0.9971718901794779,0.05314236274332958));
#311=FACE_BOUND('',#312,.T.);
#312=EDGE_LOOP('',(#313,#314,#315));
#313=ORIENTED_EDGE('',*,*,#316,.T.);
#314=ORIENTED_EDGE('',*,*,#317,.T.);
#315=ORIENTED_EDGE('',*,*,#318,.T.);
#316=EDGE_CURVE('',#41,#53,#319,.F.);
#317=EDGE_CURVE('',#53,#67,#320,.T.);
#318=EDGE_CURVE('',#67,#41,#321,.T.);
#319=LINE('',#40,#322);
#320=LINE('',#52,#323);
#321=LINE('',#66,#324);
#322=VECTOR('',#325,1.0);
#323=VECTOR('',#326,1.0);
#324=VECTOR('',#327,1.0);
#325=DIRECTION('',(0.05314236274332958,-0.9971718901794779,0.05314236274332958));
#326=DIRECTION('',(-0.7071067811865475,0,-0.7071067811865475));
#327=DIRECTION('',(0,1,0));
#328=FACE_SURFACE('',(#333),#329,.T.);
#329=PLANE('',#330);
#330=AXIS2_PLACEMENT_3D('',#68,#331,#332);
#331=DIRECTION('',(-0.7071067811865476,0,0.7071067811865476));
#332=DIRECTION('',(0,1,0));
#333=FACE_BOUND('',#334,.T.);
#334=EDGE_LOOP('',(#335,#336,#337));
#335=ORIENTED_EDGE('',*,*,#338,.T.);
#336=ORIENTED_EDGE('',*,*,#339,.T.);
#337=ORIENTED_EDGE('',*,*,#340,.T.);
#338=EDGE_CURVE('',#69,#55,#341,.F.);
#339=EDGE_CURVE('',#55,#57,#342,.T.);
#340=EDGE_CURVE('',#57,#69,#343,.T.);
#341=LINE('',#68,#344);
#342=LINE('',#54,#345);
#343=LINE('',#56,#346);
#344=VECTOR('',#347,1.0);
#345=VECTOR('',#348,1.0);
#346=VECTOR('',#349,1.0);
#347=DIRECTION('',(0,1,0));
#348=DIRECTION('',(-0.7071067811865475,0,-0.7071067811865475));
#349=DIRECTION('',(0.1589770413708449,-0.974398584068114,0.1589770413708449));
#350=FACE_SURFACE('',(#355),#351,.T.);
#351=PLANE('',#352);
#352=AXIS2_PLACEMENT_3D('',#68,#353,#354);
#353=DIRECTION('',(-0.7071067811865476,0,0.7071067811865476));
#354=DIRECTION('',(-0.1589770413708449,0.974398584068114,-0.1589770413708449));
#355=FACE_BOUND('',#356,.T.);
#356=EDGE_LOOP('',(#357,#358,#359));
#357=ORIENTED_EDGE('',*,*,#360,.T.);
#358=ORIENTED_EDGE('',*,*,#361,.T.);
#359=ORIENTED_EDGE('',*,*,#362,.T.);
#360=EDGE_CURVE('',#69,#57,#363,.F.);
#361=EDGE_CURVE('',#57,#71,#364,.T.);
#362=EDGE_CURVE('',#71,#69,#365,.T.);
#363=LINE('',#68,#366);
#364=LINE('',#56,#367);
#365=LINE('',#70,#368);
#366=VECTOR('',#369,1.0);
#367=VECTOR('',#370,1.0);
#368=VECTOR('',#371,1.0);
#369=DIRECTION('',(-0.1589770413708449,0.974398584068114,-0.1589770413708449));
#370=DIRECTION('',(0,-1,0));
#371=DIRECTION('',(0.7071067811865475,0,0.7071067811865475));
#372=FACE_SURFACE('',(#377),#373,.T.);
#373=PLANE('',#374);
#374=AXIS2_PLACEMENT_3D('',#72,#375,#376);
#375=DIRECTION('',(0.9238756079676942,-0,0.382692906914047));
#376=DIRECTION('',(0.382692906914047,0,-0.9238756079676941));
#377=FACE_BOUND('',#378,.T.);
#378=EDGE_LOOP('',(#379,#380,#381));
#379=ORIENTED_EDGE('',*,*,#382,.T.);
#380=ORIENTED_EDGE('',*,*,#383,.T.);
#381=ORIENTED_EDGE('',*,*,#384,.T.);
#382=EDGE_CURVE('',#73,#61,#385,.F.);
#383=EDGE_CURVE('',#61,#43,#386,.T.);
#384=EDGE_CURVE('',#43,#73,#387,.T.);
#385=LINE('',#72,#388);
#386=LINE('',#60,#389);
#387=LINE('',#42,#390);
#388=VECTOR('',#391,1.0);
#389=VECTOR('',#392,1.0);
#390=VECTOR('',#393,1.0);
#391=DIRECTION('',(0.382692906914047,0,-0.9238756079676941));
#392=DIRECTION('',(-0.36491839786743274,0.3012217477268482,0.8809653918254956));
#393=DIRECTION('',(0,-1,0));
#394=FACE_SURFACE('',(#399),#395,.T.);
#395=PLANE('',#396);
#396=AXIS2_PLACEMENT_3D('',#74,#397,#398);
#397=DIRECTION('',(-0.382776566184875,0,0.9238409497200889));
#398=DIRECTION('',(0,1,0));
#399=FACE_BOUND('',#400,.T.);
#400=EDGE_LOOP('',(#401,#402,#403));
#401=ORIENTED_EDGE('',*,*,#404,.T.);
#402=ORIENTED_EDGE('',*,*,#405,.T.);
#403=ORIENTED_EDGE('',*,*,#406,.T.);
#404=EDGE_CURVE('',#75,#37,#407,.F.);
#405=EDGE_CURVE('',#37,#35,#408,.T.);
#406=EDGE_CURVE('',#35,#75,#409,.T.);
#407=LINE('',#74,#410);
#408=LINE('',#36,#411);
#409=LINE('',#34,#412);
#410=VECTOR('',#413,1.0);
#411=VECTOR('',#414,1.0);
#412=VECTOR('',#415,1.0);
#413=DIRECTION('',(0,1,0));
#414=DIRECTION('',(-0.923840949720089,0,-0.382776566184875));
#415=DIRECTION('',(0.005655036028881074,-0.9999812651419159,0.002343060538118274));
#416=FACE_SURFACE('',(#421),#417,.T.);
#417=PLANE('',#418);
#418=AXIS2_PLACEMENT_3D('',#74,#419,#420);
#419=DIRECTION('',(-0.382776566184875,0,0.9238409497200889));
#420=DIRECTION('',(-0.005655036028881074,0.9999812651419159,-0.002343060538118274));
#421=FACE_BOUND('',#422,.T.);
#422=EDGE_LOOP('',(#423,#424,#425));
#423=ORIENTED_EDGE('',*,*,#426,.T.);
#424=ORIENTED_EDGE('',*,*,#427,.T.);
#425=ORIENTED_EDGE('',*,*,#428,.T.);
#426=EDGE_CURVE('',#75,#35,#429,.F.);
#427=EDGE_CURVE('',#35,#77,#430,.T.);
#428=EDGE_CURVE('',#77,#75,#431,.T.);
#429=LINE('',#74,#432);
#430=LINE('',#34,#433);
#431=LINE('',#76,#434);
#432=VECTOR('',#435,1.0);
#433=VECTOR('',#436,1.0);
#434=VECTOR('',#437,1.0);
#435=DIRECTION('',(-0.005655036028881074,0.9999812651419159,-0.002343060538118274));
#436=DIRECTION('',(0,-1,0));
#437=DIRECTION('',(0.923840949720089,0,0.382776566184875));
#438=FACE_SURFACE('',(#443),#439,.T.);
#439=PLANE('',#440);
#440=AXIS2_PLACEMENT_3D('',#56,#441,#442);
#441=DIRECTION('',(-0.7071067811865475,-0,-0.7071067811865475));
#442=DIRECTION('',(0.7071067811865476,0,-0.7071067811865476));
#443=FACE_BOUND('',#444,.T.);
#444=EDGE_LOOP('',(#445,#446,#447));
#445=ORIENTED_EDGE('',*,*,#448,.T.);
#446=ORIENTED_EDGE('',*,*,#449,.T.);
#447=ORIENTED_EDGE('',*,*,#450,.T.);
#448=EDGE_CURVE('',#57,#37,#451,.F.);
#449=EDGE_CURVE('',#37,#71,#452,.T.);
#450=EDGE_CURVE('',#71,#57,#453,.T.);
#451=LINE('',#56,#454);
#452=LINE('',#36,#455);
#453=LINE('',#70,#456);
#454=VECTOR('',#457,1.0);
#455=VECTOR('',#458,1.0);
#456=VECTOR('',#459,1.0);
#457=DIRECTION('',(0.7071067811865476,0,-0.7071067811865476));
#458=DIRECTION('',(-0.5851662785977073,-0.5613918887766556,0.5851662785977073));
#459=DIRECTION('',(0,1,0));
#460=FACE_SURFACE('',(#465),#461,.T.);
#461=PLANE('',#462);
#462=AXIS2_PLACEMENT_3D('',#44,#463,#464);
#463=DIRECTION('',(-0,-1,0));
#464=DIRECTION('',(-0.13730531752073927,0,0.9905287728180989));
#465=FACE_BOUND('',#466,.T.);
#466=EDGE_LOOP('',(#467,#468,#469));
#467=ORIENTED_EDGE('',*,*,#470,.T.);
#468=ORIENTED_EDGE('',*,*,#471,.T.);
#469=ORIENTED_EDGE('',*,*,#472,.T.);
#470=EDGE_CURVE('',#45,#61,#473,.F.);
#471=EDGE_CURVE('',#61,#47,#474,.T.);
#472=EDGE_CURVE('',#47,#45,#475,.T.);
#473=LINE('',#44,#476);
#474=LINE('',#60,#477);
#475=LINE('',#46,#478);
#476=VECTOR('',#479,1.0);
#477=VECTOR('',#480,1.0);
#478=VECTOR('',#481,1.0);
#479=DIRECTION('',(-0.13730531752073927,0,0.9905287728180989));
#480=DIRECTION('',(0.027499376939128815,0,-0.9996218206241598));
#481=DIRECTION('',(0.33767286180166894,0,0.9412635329187417));
#482=FACE_SURFACE('',(#487),#483,.T.);
#483=PLANE('',#484);
#484=AXIS2_PLACEMENT_3D('',#78,#485,#486);
#485=DIRECTION('',(-0,-1,0));
#486=DIRECTION('',(-0.3826988662661659,0,0.9238731394291054));
#487=FACE_BOUND('',#488,.T.);
#488=EDGE_LOOP('',(#489,#490,#491));
#489=ORIENTED_EDGE('',*,*,#492,.T.);
#490=ORIENTED_EDGE('',*,*,#493,.T.);
#491=ORIENTED_EDGE('',*,*,#494,.T.);
#492=EDGE_CURVE('',#79,#61,#495,.F.);
#493=EDGE_CURVE('',#61,#59,#496,.T.);
#494=EDGE_CURVE('',#59,#79,#497,.T.);
#495=LINE('',#78,#498);
#496=LINE('',#60,#499);
#497=LINE('',#58,#500);
#498=VECTOR('',#501,1.0);
#499=VECTOR('',#502,1.0);
#500=VECTOR('',#503,1.0);
#501=DIRECTION('',(-0.3826988662661659,0,0.9238731394291054));
#502=DIRECTION('',(0.3133185025461702,0,-0.9496481011207392));
#503=DIRECTION('',(0.26663475535796166,0,0.9637976484901797));
#504=FACE_SURFACE('',(#509),#505,.T.);
#505=PLANE('',#506);
#506=AXIS2_PLACEMENT_3D('',#76,#507,#508);
#507=DIRECTION('',(0,-1,0));
#508=DIRECTION('',(0.3826752139199263,0,-0.9238829366599096));
#509=FACE_BOUND('',#510,.T.);
#510=EDGE_LOOP('',(#511,#512,#513));
#511=ORIENTED_EDGE('',*,*,#514,.T.);
#512=ORIENTED_EDGE('',*,*,#515,.T.);
#513=ORIENTED_EDGE('',*,*,#516,.T.);
#514=EDGE_CURVE('',#77,#47,#517,.F.);
#515=EDGE_CURVE('',#47,#61,#518,.T.);
#516=EDGE_CURVE('',#61,#77,#519,.T.);
#517=LINE('',#76,#520);
#518=LINE('',#46,#521);
#519=LINE('',#60,#522);
#520=VECTOR('',#523,1.0);
#521=VECTOR('',#524,1.0);
#522=VECTOR('',#525,1.0);
#523=DIRECTION('',(0.3826752139199263,0,-0.9238829366599096));
#524=DIRECTION('',(-0.027499376939128815,0,0.9996218206241598));
#525=DIRECTION('',(-0.448837462319622,0,0.8936134132937363));
#526=FACE_SURFACE('',(#531),#527,.T.);
#527=PLANE('',#528);
#528=AXIS2_PLACEMENT_3D('',#72,#529,#530);
#529=DIRECTION('',(0,-1,-0));
#530=DIRECTION('',(-0.9238509732189542,0,-0.3827523733203899));
#531=FACE_BOUND('',#532,.T.);
#532=EDGE_LOOP('',(#533,#534,#535));
#533=ORIENTED_EDGE('',*,*,#536,.T.);
#534=ORIENTED_EDGE('',*,*,#537,.T.);
#535=ORIENTED_EDGE('',*,*,#538,.T.);
#536=EDGE_CURVE('',#73,#67,#539,.F.);
#537=EDGE_CURVE('',#67,#61,#540,.T.);
#538=EDGE_CURVE('',#61,#73,#541,.T.);
#539=LINE('',#72,#542);
#540=LINE('',#66,#543);
#541=LINE('',#60,#544);
#542=VECTOR('',#545,1.0);
#543=VECTOR('',#546,1.0);
#544=VECTOR('',#547,1.0);
#545=DIRECTION('',(-0.9238509732189542,0,-0.3827523733203899));
#546=DIRECTION('',(0.3991000482563732,0,-0.916907384353382));
#547=DIRECTION('',(-0.382692906914047,0,0.9238756079676941));
#548=FACE_SURFACE('',(#553),#549,.T.);
#549=PLANE('',#550);
#550=AXIS2_PLACEMENT_3D('',#76,#551,#552);
#551=DIRECTION('',(0,-1,0));
#552=DIRECTION('',(0.448837462319622,0,-0.8936134132937363));
#553=FACE_BOUND('',#554,.T.);
#554=EDGE_LOOP('',(#555,#556,#557));
#555=ORIENTED_EDGE('',*,*,#558,.T.);
#556=ORIENTED_EDGE('',*,*,#559,.T.);
#557=ORIENTED_EDGE('',*,*,#560,.T.);
#558=EDGE_CURVE('',#77,#61,#561,.F.);
#559=EDGE_CURVE('',#61,#75,#562,.T.);
#560=EDGE_CURVE('',#75,#77,#563,.T.);
#561=LINE('',#76,#564);
#562=LINE('',#60,#565);
#563=LINE('',#74,#566);
#564=VECTOR('',#567,1.0);
#565=VECTOR('',#568,1.0);
#566=VECTOR('',#569,1.0);
#567=DIRECTION('',(0.448837462319622,0,-0.8936134132937363));
#568=DIRECTION('',(-0.44711753284562517,0,0.894475215879144));
#569=DIRECTION('',(-0.923840949720089,0,-0.382776566184875));
#570=FACE_SURFACE('',(#575),#571,.T.);
#571=PLANE('',#572);
#572=AXIS2_PLACEMENT_3D('',#66,#573,#574);
#573=DIRECTION('',(0,-1,-0));
#574=DIRECTION('',(-0.9238537599698509,0,-0.3827456468590718));
#575=FACE_BOUND('',#576,.T.);
#576=EDGE_LOOP('',(#577,#578,#579));
#577=ORIENTED_EDGE('',*,*,#580,.T.);
#578=ORIENTED_EDGE('',*,*,#581,.T.);
#579=ORIENTED_EDGE('',*,*,#582,.T.);
#580=EDGE_CURVE('',#67,#75,#583,.F.);
#581=EDGE_CURVE('',#75,#61,#584,.T.);
#582=EDGE_CURVE('',#61,#67,#585,.T.);
#583=LINE('',#66,#586);
#584=LINE('',#74,#587);
#585=LINE('',#60,#588);
#586=VECTOR('',#589,1.0);
#587=VECTOR('',#590,1.0);
#588=VECTOR('',#591,1.0);
#589=DIRECTION('',(-0.9238537599698509,0,-0.3827456468590718));
#590=DIRECTION('',(0.44711753284562517,0,-0.894475215879144));
#591=DIRECTION('',(-0.3991000482563732,0,0.916907384353382));
#592=FACE_SURFACE('',(#597),#593,.T.);
#593=PLANE('',#594);
#594=AXIS2_PLACEMENT_3D('',#64,#595,#596);
#595=DIRECTION('',(0,1,0));
#596=DIRECTION('',(-0.21890556676795442,0,-0.9757460493581311));
#597=FACE_BOUND('',#598,.T.);
#598=EDGE_LOOP('',(#599,#600,#601));
#599=ORIENTED_EDGE('',*,*,#602,.T.);
#600=ORIENTED_EDGE('',*,*,#603,.T.);
#601=ORIENTED_EDGE('',*,*,#604,.T.);
#602=EDGE_CURVE('',#65,#81,#605,.F.);
#603=EDGE_CURVE('',#81,#39,#606,.T.);
#604=EDGE_CURVE('',#39,#65,#607,.T.);
#605=LINE('',#64,#608);
#606=LINE('',#80,#609);
#607=LINE('',#38,#610);
#608=VECTOR('',#611,1.0);
#609=VECTOR('',#612,1.0);
#610=VECTOR('',#613,1.0);
#611=DIRECTION('',(-0.21890556676795442,0,-0.9757460493581311));
#612=DIRECTION('',(0.023359921630162105,0,0.9997271197989144));
#613=DIRECTION('',(0.21515802896510564,0,-0.9765792454132183));
#614=FACE_SURFACE('',(#619),#615,.T.);
#615=PLANE('',#616);
#616=AXIS2_PLACEMENT_3D('',#70,#617,#618);
#617=DIRECTION('',(-0.7071067811865475,0,-0.7071067811865475));
#618=DIRECTION('',(0.5851662785977073,0.5613918887766556,-0.5851662785977073));
#619=FACE_BOUND('',#620,.T.);
#620=EDGE_LOOP('',(#621,#622,#623));
#621=ORIENTED_EDGE('',*,*,#624,.T.);
#622=ORIENTED_EDGE('',*,*,#625,.T.);
#623=ORIENTED_EDGE('',*,*,#626,.T.);
#624=EDGE_CURVE('',#71,#37,#627,.F.);
#625=EDGE_CURVE('',#37,#75,#628,.T.);
#626=EDGE_CURVE('',#75,#71,#629,.T.);
#627=LINE('',#70,#630);
#628=LINE('',#36,#631);
#629=LINE('',#74,#632);
#630=VECTOR('',#633,1.0);
#631=VECTOR('',#634,1.0);
#632=VECTOR('',#635,1.0);
#633=DIRECTION('',(0.5851662785977073,0.5613918887766556,-0.5851662785977073));
#634=DIRECTION('',(0,-1,0));
#635=DIRECTION('',(-0.7071067811865476,0,0.7071067811865476));
#636=FACE_SURFACE('',(#641),#637,.T.);
#637=PLANE('',#638);
#638=AXIS2_PLACEMENT_3D('',#68,#639,#640);
#639=DIRECTION('',(0.707106876554886,0,0.7071066858181962));
#640=DIRECTION('',(0.7071066858181962,0,-0.707106876554886));
#641=FACE_BOUND('',#642,.T.);
#642=EDGE_LOOP('',(#643,#644,#645));
#643=ORIENTED_EDGE('',*,*,#646,.T.);
#644=ORIENTED_EDGE('',*,*,#647,.T.);
#645=ORIENTED_EDGE('',*,*,#648,.T.);
#646=EDGE_CURVE('',#69,#53,#649,.F.);
#647=EDGE_CURVE('',#53,#51,#650,.T.);
#648=EDGE_CURVE('',#51,#69,#651,.T.);
#649=LINE('',#68,#652);
#650=LINE('',#52,#653);
#651=LINE('',#50,#654);
#652=VECTOR('',#655,1.0);
#653=VECTOR('',#656,1.0);
#654=VECTOR('',#657,1.0);
#655=DIRECTION('',(0.7071066858181962,0,-0.707106876554886));
#656=DIRECTION('',(0,1,0));
#657=DIRECTION('',(-0.5928674005150918,-0.5449920193805006,0.5928675604365968));
#658=FACE_SURFACE('',(#663),#659,.T.);
#659=PLANE('',#660);
#660=AXIS2_PLACEMENT_3D('',#68,#661,#662);
#661=DIRECTION('',(0.707106876554886,-0,0.7071066858181962));
#662=DIRECTION('',(0.5928674005150918,0.5449920193805006,-0.5928675604365968));
#663=FACE_BOUND('',#664,.T.);
#664=EDGE_LOOP('',(#665,#666,#667));
#665=ORIENTED_EDGE('',*,*,#668,.T.);
#666=ORIENTED_EDGE('',*,*,#669,.T.);
#667=ORIENTED_EDGE('',*,*,#670,.T.);
#668=EDGE_CURVE('',#69,#51,#671,.F.);
#669=EDGE_CURVE('',#51,#55,#672,.T.);
#670=EDGE_CURVE('',#55,#69,#673,.T.);
#671=LINE('',#68,#674);
#672=LINE('',#50,#675);
#673=LINE('',#54,#676);
#674=VECTOR('',#677,1.0);
#675=VECTOR('',#678,1.0);
#676=VECTOR('',#679,1.0);
#677=DIRECTION('',(0.5928674005150918,0.5449920193805006,-0.5928675604365968));
#678=DIRECTION('',(-0.7071066858181962,0,0.707106876554886));
#679=DIRECTION('',(0,-1,0));
#680=FACE_SURFACE('',(#685),#681,.T.);
#681=PLANE('',#682);
#682=AXIS2_PLACEMENT_3D('',#66,#683,#684);
#683=DIRECTION('',(-0,-1,0));
#684=DIRECTION('',(-0.6716603457715458,0,0.7408592173402768));
#685=FACE_BOUND('',#686,.T.);
#686=EDGE_LOOP('',(#687,#688,#689));
#687=ORIENTED_EDGE('',*,*,#690,.T.);
#688=ORIENTED_EDGE('',*,*,#691,.T.);
#689=ORIENTED_EDGE('',*,*,#692,.T.);
#690=EDGE_CURVE('',#67,#69,#693,.F.);
#691=EDGE_CURVE('',#69,#75,#694,.T.);
#692=EDGE_CURVE('',#75,#67,#695,.T.);
#693=LINE('',#66,#696);
#694=LINE('',#68,#697);
#695=LINE('',#74,#698);
#696=VECTOR('',#699,1.0);
#697=VECTOR('',#700,1.0);
#698=VECTOR('',#701,1.0);
#699=DIRECTION('',(-0.6716603457715458,0,0.7408592173402768));
#700=DIRECTION('',(0.5892519548718215,0,-0.8079493385601209));
#701=DIRECTION('',(0.9238537599698509,0,0.3827456468590718));
#702=FACE_SURFACE('',(#707),#703,.T.);
#703=PLANE('',#704);
#704=AXIS2_PLACEMENT_3D('',#52,#705,#706);
#705=DIRECTION('',(-0,-1,0));
#706=DIRECTION('',(-0.7071066858181962,0,0.707106876554886));
#707=FACE_BOUND('',#708,.T.);
#708=EDGE_LOOP('',(#709,#710,#711));
#709=ORIENTED_EDGE('',*,*,#712,.T.);
#710=ORIENTED_EDGE('',*,*,#713,.T.);
#711=ORIENTED_EDGE('',*,*,#714,.T.);
#712=EDGE_CURVE('',#53,#69,#715,.F.);
#713=EDGE_CURVE('',#69,#67,#716,.T.);
#714=EDGE_CURVE('',#67,#53,#717,.T.);
#715=LINE('',#52,#718);
#716=LINE('',#68,#719);
#717=LINE('',#66,#720);
#718=VECTOR('',#721,1.0);
#719=VECTOR('',#722,1.0);
#720=VECTOR('',#723,1.0);
#721=DIRECTION('',(-0.7071066858181962,0,0.707106876554886));
#722=DIRECTION('',(0.6716603457715458,0,-0.7408592173402768));
#723=DIRECTION('',(0.7071067811865475,0,0.7071067811865475));
#724=FACE_SURFACE('',(#729),#725,.T.);
#725=PLANE('',#726);
#726=AXIS2_PLACEMENT_3D('',#70,#727,#728);
#727=DIRECTION('',(0,-1,0));
#728=DIRECTION('',(0.7071067811865476,0,-0.7071067811865476));
#729=FACE_BOUND('',#730,.T.);
#730=EDGE_LOOP('',(#731,#732,#733));
#731=ORIENTED_EDGE('',*,*,#734,.T.);
#732=ORIENTED_EDGE('',*,*,#735,.T.);
#733=ORIENTED_EDGE('',*,*,#736,.T.);
#734=EDGE_CURVE('',#71,#75,#737,.F.);
#735=EDGE_CURVE('',#75,#69,#738,.T.);
#736=EDGE_CURVE('',#69,#71,#739,.T.);
#737=LINE('',#70,#740);
#738=LINE('',#74,#741);
#739=LINE('',#68,#742);
#740=VECTOR('',#743,1.0);
#741=VECTOR('',#744,1.0);
#742=VECTOR('',#745,1.0);
#743=DIRECTION('',(0.7071067811865476,0,-0.7071067811865476));
#744=DIRECTION('',(-0.5892519548718215,0,0.8079493385601209));
#745=DIRECTION('',(-0.7071067811865475,0,-0.7071067811865475));
#746=FACE_SURFACE('',(#751),#747,.T.);
#747=PLANE('',#748);
#748=AXIS2_PLACEMENT_3D('',#62,#749,#750);
#749=DIRECTION('',(0.9238690607774293,0,0.38270871238871856));
#750=DIRECTION('',(-0.3827087123887185,0,0.9238690607774291));
#751=FACE_BOUND('',#752,.T.);
#752=EDGE_LOOP('',(#753,#754,#755));
#753=ORIENTED_EDGE('',*,*,#756,.T.);
#754=ORIENTED_EDGE('',*,*,#757,.T.);
#755=ORIENTED_EDGE('',*,*,#758,.T.);
#756=EDGE_CURVE('',#63,#39,#759,.F.);
#757=EDGE_CURVE('',#39,#79,#760,.T.);
#758=EDGE_CURVE('',#79,#63,#761,.T.);
#759=LINE('',#62,#762);
#760=LINE('',#38,#763);
#761=LINE('',#78,#764);
#762=VECTOR('',#765,1.0);
#763=VECTOR('',#766,1.0);
#764=VECTOR('',#767,1.0);
#765=DIRECTION('',(-0.3827087123887185,0,0.9238690607774291));
#766=DIRECTION('',(0.04229260990347248,-0.9938751661676406,-0.10209549070746242));
#767=DIRECTION('',(0,1,0));
#768=FACE_SURFACE('',(#773),#769,.T.);
#769=PLANE('',#770);
#770=AXIS2_PLACEMENT_3D('',#82,#771,#772);
#771=DIRECTION('',(0,1,-0));
#772=DIRECTION('',(-0.9239013813187489,0,-0.3826306804182172));
#773=FACE_BOUND('',#774,.T.);
#774=EDGE_LOOP('',(#775,#776,#777));
#775=ORIENTED_EDGE('',*,*,#778,.T.);
#776=ORIENTED_EDGE('',*,*,#779,.T.);
#777=ORIENTED_EDGE('',*,*,#780,.T.);
#778=EDGE_CURVE('',#83,#85,#781,.F.);
#779=EDGE_CURVE('',#85,#81,#782,.T.);
#780=EDGE_CURVE('',#81,#83,#783,.T.);
#781=LINE('',#82,#784);
#782=LINE('',#84,#785);
#783=LINE('',#80,#786);
#784=VECTOR('',#787,1.0);
#785=VECTOR('',#788,1.0);
#786=VECTOR('',#789,1.0);
#787=DIRECTION('',(-0.9239013813187489,0,-0.3826306804182172));
#788=DIRECTION('',(0.33767286180166894,0,0.9412635329187417));
#789=DIRECTION('',(-0.17121469261580344,0,-0.9852337433484888));
#790=FACE_SURFACE('',(#795),#791,.T.);
#791=PLANE('',#792);
#792=AXIS2_PLACEMENT_3D('',#60,#793,#794);
#793=DIRECTION('',(0.9238731394284568,1.184999462650715E-06,0.3826988662658972));
#794=DIRECTION('',(0.3826988662661659,0,-0.9238731394291054));
#795=FACE_BOUND('',#796,.T.);
#796=EDGE_LOOP('',(#797,#798,#799));
#797=ORIENTED_EDGE('',*,*,#800,.T.);
#798=ORIENTED_EDGE('',*,*,#801,.T.);
#799=ORIENTED_EDGE('',*,*,#802,.T.);
#800=EDGE_CURVE('',#61,#79,#803,.F.);
#801=EDGE_CURVE('',#79,#39,#804,.T.);
#802=EDGE_CURVE('',#39,#61,#805,.T.);
#803=LINE('',#60,#806);
#804=LINE('',#78,#807);
#805=LINE('',#38,#808);
#806=VECTOR('',#809,1.0);
#807=VECTOR('',#810,1.0);
#808=VECTOR('',#811,1.0);
#809=DIRECTION('',(0.3826988662661659,0,-0.9238731394291054));
#810=DIRECTION('',(-0.04229260990347248,0.9938751661676406,0.10209549070746242));
#811=DIRECTION('',(-0.07541468034810014,-0.9803908445253018,0.18206157738237747));
#812=FACE_SURFACE('',(#817),#813,.T.);
#813=PLANE('',#814);
#814=AXIS2_PLACEMENT_3D('',#84,#815,#816);
#815=DIRECTION('',(-0.9238829366599097,-0,-0.38267521391992637));
#816=DIRECTION('',(0,-1,0));
#817=FACE_BOUND('',#818,.T.);
#818=EDGE_LOOP('',(#819,#820,#821));
#819=ORIENTED_EDGE('',*,*,#822,.T.);
#820=ORIENTED_EDGE('',*,*,#823,.T.);
#821=ORIENTED_EDGE('',*,*,#824,.T.);
#822=EDGE_CURVE('',#85,#47,#825,.F.);
#823=EDGE_CURVE('',#47,#35,#826,.T.);
#824=EDGE_CURVE('',#35,#85,#827,.T.);
#825=LINE('',#84,#828);
#826=LINE('',#46,#829);
#827=LINE('',#34,#830);
#828=VECTOR('',#831,1.0);
#829=VECTOR('',#832,1.0);
#830=VECTOR('',#833,1.0);
#831=DIRECTION('',(0,-1,0));
#832=DIRECTION('',(-0.36987900963638914,0.2564360906348426,0.8929893894388236));
#833=DIRECTION('',(0.3826752139199263,0,-0.9238829366599096));
#834=FACE_SURFACE('',(#839),#835,.T.);
#835=PLANE('',#836);
#836=AXIS2_PLACEMENT_3D('',#34,#837,#838);
#837=DIRECTION('',(0,1,0));
#838=DIRECTION('',(0.4085566463331615,0,-0.9127329657336805));
#839=FACE_BOUND('',#840,.T.);
#840=EDGE_LOOP('',(#841,#842,#843));
#841=ORIENTED_EDGE('',*,*,#844,.T.);
#842=ORIENTED_EDGE('',*,*,#845,.T.);
#843=ORIENTED_EDGE('',*,*,#846,.T.);
#844=EDGE_CURVE('',#35,#81,#847,.F.);
#845=EDGE_CURVE('',#81,#85,#848,.T.);
#846=EDGE_CURVE('',#85,#35,#849,.T.);
#847=LINE('',#34,#850);
#848=LINE('',#80,#851);
#849=LINE('',#84,#852);
#850=VECTOR('',#853,1.0);
#851=VECTOR('',#854,1.0);
#852=VECTOR('',#855,1.0);
#853=DIRECTION('',(0.4085566463331615,0,-0.9127329657336805));
#854=DIRECTION('',(-0.33767286180166894,0,-0.9412635329187417));
#855=DIRECTION('',(-0.3826752139199263,0,0.9238829366599096));
#856=FACE_SURFACE('',(#861),#857,.T.);
#857=PLANE('',#858);
#858=AXIS2_PLACEMENT_3D('',#82,#859,#860);
#859=DIRECTION('',(0.3826306804182172,0,-0.9239013813187489));
#860=DIRECTION('',(-0.028747717053836608,-0.9995157934591522,-0.01190577128597769));
#861=FACE_BOUND('',#862,.T.);
#862=EDGE_LOOP('',(#863,#864,#865));
#863=ORIENTED_EDGE('',*,*,#866,.T.);
#864=ORIENTED_EDGE('',*,*,#867,.T.);
#865=ORIENTED_EDGE('',*,*,#868,.T.);
#866=EDGE_CURVE('',#83,#47,#869,.F.);
#867=EDGE_CURVE('',#47,#85,#870,.T.);
#868=EDGE_CURVE('',#85,#83,#871,.T.);
#869=LINE('',#82,#872);
#870=LINE('',#46,#873);
#871=LINE('',#84,#874);
#872=VECTOR('',#875,1.0);
#873=VECTOR('',#876,1.0);
#874=VECTOR('',#877,1.0);
#875=DIRECTION('',(-0.028747717053836608,-0.9995157934591522,-0.01190577128597769));
#876=DIRECTION('',(0,1,0));
#877=DIRECTION('',(0.9239013813187489,0,0.3826306804182172));
#878=FACE_SURFACE('',(#883),#879,.T.);
#879=PLANE('',#880);
#880=AXIS2_PLACEMENT_3D('',#34,#881,#882);
#881=DIRECTION('',(-0.9238829366599097,-0,-0.38267521391992637));
#882=DIRECTION('',(0.36987900963638914,-0.2564360906348426,-0.8929893894388236));
#883=FACE_BOUND('',#884,.T.);
#884=EDGE_LOOP('',(#885,#886,#887));
#885=ORIENTED_EDGE('',*,*,#888,.T.);
#886=ORIENTED_EDGE('',*,*,#889,.T.);
#887=ORIENTED_EDGE('',*,*,#890,.T.);
#888=EDGE_CURVE('',#35,#47,#891,.F.);
#889=EDGE_CURVE('',#47,#77,#892,.T.);
#890=EDGE_CURVE('',#77,#35,#893,.T.);
#891=LINE('',#34,#894);
#892=LINE('',#46,#895);
#893=LINE('',#76,#896);
#894=VECTOR('',#897,1.0);
#895=VECTOR('',#898,1.0);
#896=VECTOR('',#899,1.0);
#897=DIRECTION('',(0.36987900963638914,-0.2564360906348426,-0.8929893894388236));
#898=DIRECTION('',(-0.3826752139199263,0,0.9238829366599096));
#899=DIRECTION('',(0,1,0));
#900=FACE_SURFACE('',(#905),#901,.T.);
#901=PLANE('',#902);
#902=AXIS2_PLACEMENT_3D('',#80,#903,#904);
#903=DIRECTION('',(0,1,-0));
#904=DIRECTION('',(-0.4085566463331615,0,0.9127329657336805));
#905=FACE_BOUND('',#906,.T.);
#906=EDGE_LOOP('',(#907,#908,#909));
#907=ORIENTED_EDGE('',*,*,#910,.T.);
#908=ORIENTED_EDGE('',*,*,#911,.T.);
#909=ORIENTED_EDGE('',*,*,#912,.T.);
#910=EDGE_CURVE('',#81,#35,#913,.F.);
#911=EDGE_CURVE('',#35,#39,#914,.T.);
#912=EDGE_CURVE('',#39,#81,#915,.T.);
#913=LINE('',#80,#916);
#914=LINE('',#34,#917);
#915=LINE('',#38,#918);
#916=VECTOR('',#919,1.0);
#917=VECTOR('',#920,1.0);
#918=VECTOR('',#921,1.0);
#919=DIRECTION('',(-0.4085566463331615,0,0.9127329657336805));
#920=DIRECTION('',(0.444964075318867,0,-0.8955484195037282));
#921=DIRECTION('',(-0.023359921630162105,0,-0.9997271197989144));
#922=FACE_SURFACE('',(#927),#923,.T.);
#923=PLANE('',#924);
#924=AXIS2_PLACEMENT_3D('',#42,#925,#926);
#925=DIRECTION('',(-0.3827523733203899,0,0.9238509732189543));
#926=DIRECTION('',(-0.9238509732189542,0,-0.3827523733203899));
#927=FACE_BOUND('',#928,.T.);
#928=EDGE_LOOP('',(#929,#930,#931));
#929=ORIENTED_EDGE('',*,*,#932,.T.);
#930=ORIENTED_EDGE('',*,*,#933,.T.);
#931=ORIENTED_EDGE('',*,*,#934,.T.);
#932=EDGE_CURVE('',#43,#41,#935,.F.);
#933=EDGE_CURVE('',#41,#67,#936,.T.);
#934=EDGE_CURVE('',#67,#43,#937,.T.);
#935=LINE('',#42,#938);
#936=LINE('',#40,#939);
#937=LINE('',#66,#940);
#938=VECTOR('',#941,1.0);
#939=VECTOR('',#942,1.0);
#940=VECTOR('',#943,1.0);
#941=DIRECTION('',(-0.9238509732189542,0,-0.3827523733203899));
#942=DIRECTION('',(0,-1,0));
#943=DIRECTION('',(0.05205527686909261,0.9984113039983586,0.021566552769948864));
#944=FACE_SURFACE('',(#949),#945,.T.);
#945=PLANE('',#946);
#946=AXIS2_PLACEMENT_3D('',#42,#947,#948);
#947=DIRECTION('',(-0.3827523733203899,0,0.9238509732189543));
#948=DIRECTION('',(-0.05205527686909261,-0.9984113039983586,-0.021566552769948864));
#949=FACE_BOUND('',#950,.T.);
#950=EDGE_LOOP('',(#951,#952,#953));
#951=ORIENTED_EDGE('',*,*,#954,.T.);
#952=ORIENTED_EDGE('',*,*,#955,.T.);
#953=ORIENTED_EDGE('',*,*,#956,.T.);
#954=EDGE_CURVE('',#43,#67,#957,.F.);
#955=EDGE_CURVE('',#67,#73,#958,.T.);
#956=EDGE_CURVE('',#73,#43,#959,.T.);
#957=LINE('',#42,#960);
#958=LINE('',#66,#961);
#959=LINE('',#72,#962);
#960=VECTOR('',#963,1.0);
#961=VECTOR('',#964,1.0);
#962=VECTOR('',#965,1.0);
#963=DIRECTION('',(-0.05205527686909261,-0.9984113039983586,-0.021566552769948864));
#964=DIRECTION('',(0.9238509732189542,0,0.3827523733203899));
#965=DIRECTION('',(0,1,0));
#966=FACE_SURFACE('',(#971),#967,.T.);
#967=PLANE('',#968);
#968=AXIS2_PLACEMENT_3D('',#58,#969,#970);
#969=DIRECTION('',(0.9757460493581313,0,-0.21890556676795442));
#970=DIRECTION('',(-0.21890556676795442,0,-0.9757460493581311));
#971=FACE_BOUND('',#972,.T.);
#972=EDGE_LOOP('',(#973,#974,#975));
#973=ORIENTED_EDGE('',*,*,#976,.T.);
#974=ORIENTED_EDGE('',*,*,#977,.T.);
#975=ORIENTED_EDGE('',*,*,#978,.T.);
#976=EDGE_CURVE('',#59,#45,#979,.F.);
#977=EDGE_CURVE('',#45,#81,#980,.T.);
#978=EDGE_CURVE('',#81,#59,#981,.T.);
#979=LINE('',#58,#982);
#980=LINE('',#44,#983);
#981=LINE('',#80,#984);
#982=VECTOR('',#985,1.0);
#983=VECTOR('',#986,1.0);
#984=VECTOR('',#987,1.0);
#985=DIRECTION('',(-0.21890556676795442,0,-0.9757460493581311));
#986=DIRECTION('',(0,1,0));
#987=DIRECTION('',(0.03824894286450135,-0.9846167317616474,0.17049020471792556));
#988=FACE_SURFACE('',(#993),#989,.T.);
#989=PLANE('',#990);
#990=AXIS2_PLACEMENT_3D('',#38,#991,#992);
#991=DIRECTION('',(0.9238755952866053,-1.0489745736763549E-07,0.3826929375279997));
#992=DIRECTION('',(-0.3826929375280018,0,0.9238755952866106));
#993=FACE_BOUND('',#994,.T.);
#994=EDGE_LOOP('',(#995,#996,#997));
#995=ORIENTED_EDGE('',*,*,#998,.T.);
#996=ORIENTED_EDGE('',*,*,#999,.T.);
#997=ORIENTED_EDGE('',*,*,#1000,.T.);
#998=EDGE_CURVE('',#39,#43,#1001,.F.);
#999=EDGE_CURVE('',#43,#61,#1002,.T.);
#1000=EDGE_CURVE('',#61,#39,#1003,.T.);
#1001=LINE('',#38,#1004);
#1002=LINE('',#42,#1005);
#1003=LINE('',#60,#1006);
#1004=VECTOR('',#1007,1.0);
#1005=VECTOR('',#1008,1.0);
#1006=VECTOR('',#1009,1.0);
#1007=DIRECTION('',(-0.3826929375280018,0,0.9238755952866106));
#1008=DIRECTION('',(0.36491839786743274,-0.3012217477268482,-0.8809653918254956));
#1009=DIRECTION('',(0.07541468034810014,0.9803908445253018,-0.18206157738237747));
#1010=FACE_SURFACE('',(#1015),#1011,.T.);
#1011=PLANE('',#1012);
#1012=AXIS2_PLACEMENT_3D('',#82,#1013,#1014);
#1013=DIRECTION('',(0.3826306804182172,0,-0.9239013813187489));
#1014=DIRECTION('',(0,-1,0));
#1015=FACE_BOUND('',#1016,.T.);
#1016=EDGE_LOOP('',(#1017,#1018,#1019));
#1017=ORIENTED_EDGE('',*,*,#1020,.T.);
#1018=ORIENTED_EDGE('',*,*,#1021,.T.);
#1019=ORIENTED_EDGE('',*,*,#1022,.T.);
#1020=EDGE_CURVE('',#83,#49,#1023,.F.);
#1021=EDGE_CURVE('',#49,#47,#1024,.T.);
#1022=EDGE_CURVE('',#47,#83,#1025,.T.);
#1023=LINE('',#82,#1026);
#1024=LINE('',#48,#1027);
#1025=LINE('',#46,#1028);
#1026=VECTOR('',#1029,1.0);
#1027=VECTOR('',#1030,1.0);
#1028=VECTOR('',#1031,1.0);
#1029=DIRECTION('',(0,-1,0));
#1030=DIRECTION('',(-0.9239013813187489,0,-0.3826306804182172));
#1031=DIRECTION('',(0.028747717053836608,0.9995157934591522,0.01190577128597769));
#1032=FACE_SURFACE('',(#1037),#1033,.T.);
#1033=PLANE('',#1034);
#1034=AXIS2_PLACEMENT_3D('',#62,#1035,#1036);
#1035=DIRECTION('',(0.9637976484901797,0,-0.26663475535796166));
#1036=DIRECTION('',(0,-1,0));
#1037=FACE_BOUND('',#1038,.T.);
#1038=EDGE_LOOP('',(#1039,#1040,#1041));
#1039=ORIENTED_EDGE('',*,*,#1042,.T.);
#1040=ORIENTED_EDGE('',*,*,#1043,.T.);
#1041=ORIENTED_EDGE('',*,*,#1044,.T.);
#1042=EDGE_CURVE('',#63,#79,#1045,.F.);
#1043=EDGE_CURVE('',#79,#65,#1046,.T.);
#1044=EDGE_CURVE('',#65,#63,#1047,.T.);
#1045=LINE('',#62,#1048);
#1046=LINE('',#78,#1049);
#1047=LINE('',#64,#1050);
#1048=VECTOR('',#1051,1.0);
#1049=VECTOR('',#1052,1.0);
#1050=VECTOR('',#1053,1.0);
#1051=DIRECTION('',(0,-1,0));
#1052=DIRECTION('',(-0.011080039320409971,0.9991362129266557,-0.04005072717490724));
#1053=DIRECTION('',(0.26663475535796166,0,0.9637976484901797));
#1054=FACE_SURFACE('',(#1059),#1055,.T.);
#1055=PLANE('',#1056);
#1056=AXIS2_PLACEMENT_3D('',#58,#1057,#1058);
#1057=DIRECTION('',(0.9637976484901797,0,-0.26663475535796166));
#1058=DIRECTION('',(0,1,0));
#1059=FACE_BOUND('',#1060,.T.);
#1060=EDGE_LOOP('',(#1061,#1062,#1063));
#1061=ORIENTED_EDGE('',*,*,#1064,.T.);
#1062=ORIENTED_EDGE('',*,*,#1065,.T.);
#1063=ORIENTED_EDGE('',*,*,#1066,.T.);
#1064=EDGE_CURVE('',#59,#65,#1067,.F.);
#1065=EDGE_CURVE('',#65,#79,#1068,.T.);
#1066=EDGE_CURVE('',#79,#59,#1069,.T.);
#1067=LINE('',#58,#1070);
#1068=LINE('',#64,#1071);
#1069=LINE('',#78,#1072);
#1070=VECTOR('',#1073,1.0);
#1071=VECTOR('',#1074,1.0);
#1072=VECTOR('',#1075,1.0);
#1073=DIRECTION('',(0,1,0));
#1074=DIRECTION('',(0.011080039320409971,-0.9991362129266557,0.04005072717490724));
#1075=DIRECTION('',(-0.26663475535796166,0,-0.9637976484901797));
#1076=FACE_SURFACE('',(#1081),#1077,.T.);
#1077=PLANE('',#1078);
#1078=AXIS2_PLACEMENT_3D('',#64,#1079,#1080);
#1079=DIRECTION('',(0.9757460493581313,0,-0.21890556676795442));
#1080=DIRECTION('',(0,-1,0));
#1081=FACE_BOUND('',#1082,.T.);
#1082=EDGE_LOOP('',(#1083,#1084,#1085));
#1083=ORIENTED_EDGE('',*,*,#1086,.T.);
#1084=ORIENTED_EDGE('',*,*,#1087,.T.);
#1085=ORIENTED_EDGE('',*,*,#1088,.T.);
#1086=EDGE_CURVE('',#65,#59,#1089,.F.);
#1087=EDGE_CURVE('',#59,#81,#1090,.T.);
#1088=EDGE_CURVE('',#81,#65,#1091,.T.);
#1089=LINE('',#64,#1092);
#1090=LINE('',#58,#1093);
#1091=LINE('',#80,#1094);
#1092=VECTOR('',#1095,1.0);
#1093=VECTOR('',#1096,1.0);
#1094=VECTOR('',#1097,1.0);
#1095=DIRECTION('',(0,-1,0));
#1096=DIRECTION('',(-0.03824894286450135,0.9846167317616474,-0.17049020471792556));
#1097=DIRECTION('',(0.21890556676795442,0,0.9757460493581311));
#1098=FACE_SURFACE('',(#1103),#1099,.T.);
#1099=PLANE('',#1100);
#1100=AXIS2_PLACEMENT_3D('',#44,#1101,#1102);
#1101=DIRECTION('',(0.9852337433484888,0,-0.17121469261580344));
#1102=DIRECTION('',(-0.17121469261580344,0,-0.9852337433484888));
#1103=FACE_BOUND('',#1104,.T.);
#1104=EDGE_LOOP('',(#1105,#1106,#1107));
#1105=ORIENTED_EDGE('',*,*,#1108,.T.);
#1106=ORIENTED_EDGE('',*,*,#1109,.T.);
#1107=ORIENTED_EDGE('',*,*,#1110,.T.);
#1108=EDGE_CURVE('',#45,#49,#1111,.F.);
#1109=EDGE_CURVE('',#49,#81,#1112,.T.);
#1110=EDGE_CURVE('',#81,#45,#1113,.T.);
#1111=LINE('',#44,#1114);
#1112=LINE('',#48,#1115);
#1113=LINE('',#80,#1116);
#1114=VECTOR('',#1117,1.0);
#1115=VECTOR('',#1118,1.0);
#1116=VECTOR('',#1119,1.0);
#1117=DIRECTION('',(-0.17121469261580344,0,-0.9852337433484888));
#1118=DIRECTION('',(0.022802938676454818,0.9910914222172155,0.13121668642049672));
#1119=DIRECTION('',(0,-1,0));
#1120=FACE_SURFACE('',(#1125),#1121,.T.);
#1121=PLANE('',#1122);
#1122=AXIS2_PLACEMENT_3D('',#82,#1123,#1124);
#1123=DIRECTION('',(0.9852337433484888,0,-0.17121469261580344));
#1124=DIRECTION('',(0.17121469261580344,0,0.9852337433484888));
#1125=FACE_BOUND('',#1126,.T.);
#1126=EDGE_LOOP('',(#1127,#1128,#1129));
#1127=ORIENTED_EDGE('',*,*,#1130,.T.);
#1128=ORIENTED_EDGE('',*,*,#1131,.T.);
#1129=ORIENTED_EDGE('',*,*,#1132,.T.);
#1130=EDGE_CURVE('',#83,#81,#1133,.F.);
#1131=EDGE_CURVE('',#81,#49,#1134,.T.);
#1132=EDGE_CURVE('',#49,#83,#1135,.T.);
#1133=LINE('',#82,#1136);
#1134=LINE('',#80,#1137);
#1135=LINE('',#48,#1138);
#1136=VECTOR('',#1139,1.0);
#1137=VECTOR('',#1140,1.0);
#1138=VECTOR('',#1141,1.0);
#1139=DIRECTION('',(0.17121469261580344,0,0.9852337433484888));
#1140=DIRECTION('',(-0.022802938676454818,-0.9910914222172155,-0.13121668642049672));
#1141=DIRECTION('',(0,1,0));
ENDSEC;
END-ISO-10303-21;
